<svg width="25" height="32" viewBox="0 0 25 32" fill="none" xmlns="http://www.w3.org/2000/svg">
<path d="M22.3454 4.0199L22.3451 4.01948C21.6808 3.11213 20.9059 2.40248 20.068 1.91945L20.0672 1.91902C19.1994 1.41671 18.2785 1.16479 17.356 1.16775L17.3544 1.16776C16.0603 1.16775 14.7804 1.66041 13.65 2.62125L13.65 2.62126C13.3793 2.85137 13.1212 3.10484 12.8759 3.38207L12.5014 3.80527L12.127 3.38207C11.8817 3.10484 11.6236 2.85137 11.3529 2.62126L11.3529 2.62125C10.2225 1.66041 8.94259 1.16775 7.64844 1.16775C6.71383 1.16775 5.80421 1.41629 4.9356 1.91902L4.93498 1.91938C4.09406 2.40448 3.32529 3.10849 2.65762 4.01964L2.65708 4.02037C1.99329 4.92279 1.45757 6.00566 1.08544 7.21026L22.3454 4.0199ZM22.3454 4.0199C23.0086 4.9237 23.5443 6.00664 23.9176 7.21071L22.3454 4.0199ZM6.2519 24.8117L6.25195 24.8118C7.58046 26.5212 8.9036 27.9676 9.90881 28.9987C10.4112 29.514 10.8334 29.9249 11.1363 30.2122C11.2878 30.3559 11.4093 30.4686 11.4958 30.5479C11.5392 30.5875 11.5736 30.6187 11.5986 30.6412L11.6285 30.6678L11.6373 30.6756C11.639 30.6771 11.64 30.6779 11.6403 30.6782L11.6404 30.6783L11.6482 30.685L11.6481 30.6851L12.333 31.2971C12.3331 31.2972 12.3333 31.2973 12.3334 31.2974C12.4037 31.3598 12.4617 31.3734 12.5 31.3734C12.5382 31.3734 12.5963 31.3598 12.6666 31.2974C12.6667 31.2973 12.6668 31.2972 12.667 31.2971L13.3519 30.6851L13.3519 30.685C13.4542 30.5937 16.0859 28.2335 18.7481 24.8117C20.3514 22.7493 21.6362 20.7228 22.5672 18.789C23.155 17.5664 23.6151 16.3611 23.9301 15.2052L23.9303 15.2043C24.3103 13.82 24.5 12.4654 24.5 11.1714V11.1704C24.5028 9.79608 24.3044 8.4634 23.9176 7.21074L6.2519 24.8117ZM6.2519 24.8117C4.64859 22.7493 3.36376 20.7228 2.4328 18.789M6.2519 24.8117L2.4328 18.789M2.4328 18.789C1.84537 17.5671 1.38779 16.3616 1.06962 15.2043L2.4328 18.789ZM0.5 11.1714C0.5 9.79625 0.698502 8.46309 1.08543 7.21029L1.06956 15.2041C0.689659 13.8199 0.5 12.4654 0.5 11.1714Z" stroke="#FF0000"/>
</svg>
