<svg width="22" height="29" viewBox="0 0 22 29" fill="none" xmlns="http://www.w3.org/2000/svg">
<path d="M11 0C8.08369 0.00346197 5.28779 1.17074 3.22564 3.24579C1.16348 5.32083 0.00345217 8.1342 1.17029e-05 11.0688C-0.00348119 13.4669 0.774992 15.7999 2.21601 17.71C2.21601 17.71 2.51601 18.1075 2.56501 18.1648L11 28.175L19.439 18.1598C19.483 18.1065 19.784 17.71 19.784 17.71L19.785 17.707C21.2253 15.7977 22.0034 13.4658 22 11.0688C21.9966 8.1342 20.8365 5.32083 18.7744 3.24579C16.7122 1.17074 13.9163 0.00346197 11 0ZM11 15.0938C10.2089 15.0938 9.43553 14.8577 8.77773 14.4154C8.11993 13.9731 7.60724 13.3445 7.30449 12.6091C7.00174 11.8736 6.92253 11.0643 7.07687 10.2835C7.23121 9.50274 7.61217 8.78555 8.17158 8.22264C8.73099 7.65974 9.44373 7.27639 10.2197 7.12109C10.9956 6.96578 11.7998 7.04549 12.5307 7.35013C13.2616 7.65478 13.8864 8.17067 14.3259 8.83258C14.7654 9.49449 15 10.2727 15 11.0688C14.9987 12.1358 14.5768 13.1588 13.827 13.9134C13.0771 14.6679 12.0605 15.0924 11 15.0938Z" fill="black"/>
</svg>
